<svg version="1.1" id="Color_Logo" xmlns="http://www.w3.org/2000/svg" x="0" y="0" viewBox="0 0 175.6 34.9" xml:space="preserve"><style>.st0{fill:#fff}</style><path class="st0" d="M18 15.9c0 7 0 9.7.2 11.3.1 2.5-2.8 1.4-2.8.8.2-2 .4-2.3.4-8.2 0-4.3 0-5.7-.3-6-.2-.3-1.2-.7-3.2-.7-2.1 0-2.9.2-3.2.5-.4.5-.3 1.9-.3 2.5 0 8.9.3 10 .3 11.8 0 .8-.6 1.2-1.4 1.2-.7 0-1.4-.4-1.3-1a229.4 229.4 0 0 0 0-22.5c0-.6.5-.9 1.3-.9S9 5 9 5.5L8.9 11a34.7 34.7 0 0 0 6.7 0V5.5c0-.4.6-.7 1.3-.7.8 0 1.3.3 1.3.7-.2 2-.3 5.3-.3 10.4zM32.5 26.6c-1.2 2-3 2.6-5.3 2.6-2.2 0-3.7-.7-4.9-2.4-1-1.4-2-3.6-2-8.1 0-4.1 1.3-13.5 7.3-13.5 2.2 0 3.2.8 4.4 2.6 1.2 1.8 2.5 6 2.5 9.9 0 4.3-.6 7-2 9zm-4.9-19c-2-.7-4.8 3.7-4.8 11 0 7.1 2.5 8 4.3 8.1 1.8.3 3.7-.4 4.5-3.8.5-2.1.7-3.8.5-6-.6-6.3-2.8-8.7-4.5-9.3zM38.1 28.8c-.7 0-1.2-1-1.2-1.7l.1-9c0-6.2 0-9.8-.2-12.4 0-.5.5-.8 1.4-.8.8 0 1.4.3 1.4.8-.3 2.7-.2 4.4-.2 5.5L39.2 24c0 1.2 0 2.2.3 2.5 0 0 1.4.3 3 .3 1.3 0 1.5-.3 3.7-.4 1 0 1 2.3 0 2.3-.7 0-5 .2-8 0zM50 28.8c-.7 0-1.2-1-1.2-1.7l.1-9c0-6.2 0-9.8-.2-12.4 0-.5.6-.8 1.4-.8.8 0 1.4.3 1.4.8-.3 2.7-.1 4.4-.2 5.5L51.1 24c0 1.2 0 2.2.3 2.5 0 0 1.4.3 3 .3 1.3 0 1.6-.3 3.7-.4 1 0 1 2.3.1 2.3-.8 0-5.1.2-8.2 0zM72.8 26.6c-1.3 2-3 2.6-5.4 2.6-2.2 0-3.6-.7-4.8-2.4-1-1.4-2-3.6-2-8.1 0-4.1 1.2-13.5 7.2-13.5 2.2 0 3.2.8 4.4 2.6 1.3 1.8 2.5 6 2.5 9.9 0 4.3-.6 7-2 9zm-5-19c-2-.7-4.8 3.7-4.8 11 0 7.1 2.6 8 4.4 8.1 1.8.3 3.6-.4 4.4-3.8.5-2.1.7-3.8.5-6-.6-6.3-2.8-8.7-4.4-9.3zM93 9.7c-.9 4.5-2 10.8-4 19-.2.8-1.5.8-2 .1-.6-.9-.7-2.2-.8-3.2-.2-1.4-.5-3.1-1.5-5.7-1 2.2-1.2 4-1.4 5.4-.2 1-.3 2.6-.9 3.5-.5.7-1.8.7-2 0-1-4-1.7-8-2.5-12C77 13.4 76 10 75.6 6.2c-.1-.7.6-.9 1.3-1 .7-.1 1.2-.3 1.4 1 .4 2.6.5 4.3 1.6 9.8l1.6 6.7c.7-1.5 2-6 2.1-7.1.1-.8.2-1.5 1.2-1.5.7 0 1 .6 1.1 1.1l.8 3.4a23 23 0 0 0 1.2 4c.7-2.7 1-3.4 1.4-5.5C90.4 11.7 91 8.7 91.1 6c0-1 .9-1 1.5-1S94 4.8 94 6c-.2 1.6-.6 2.3-.9 3.7zM122.4 28.8c-.6 0-1.2-.4-1.3-.9-.7-3-.7-6.8-3.2-17-1 2-2.4 5.4-2.5 5.8-.3 1.7-.7 1.8-1 1.8-.5 0-.8-.4-1-.9l-.5-1.5c0-.4-.4-1.2-.8-2.1l-1.4-3.1c-2.5 10.4-2.5 13.3-3.2 17.6-.2.8-2.8.7-2.5-.6 2-8.7 3.9-20.6 4.1-22.2.2-.6 2.2-.7 2.5.1l1.2 4c.5 1.6 1 3 1.5 3.9.9-1.4 2.5-6.4 2.8-7.9.1-.7 2.3-.9 2.5 0 .4 1.5 2.7 15 3.8 22.3 0 .4-.3.7-1 .7zM137.2 26.6c-1.3 2-3 2.6-5.4 2.6-2.2 0-3.7-.7-4.9-2.4-1-1.4-2-3.6-2-8.1 0-4.1 1.3-13.5 7.3-13.5 2.2 0 3.2.8 4.4 2.6 1.2 1.8 2.5 6 2.5 9.9 0 4.3-.6 7-2 9zm-5-19c-2-.7-4.8 3.7-4.8 11 0 7.1 2.6 8 4.4 8.1 1.8.3 3.6-.4 4.4-3.8.5-2.1.7-3.8.5-6-.6-6.3-2.8-8.7-4.4-9.3zM153.6 26.6c-1.3 2-3 2.6-5.4 2.6-2.2 0-3.6-.7-4.8-2.4-1-1.4-2-3.6-2-8.1 0-4.1 1.2-13.5 7.2-13.5 2.2 0 3.2.8 4.4 2.6 1.2 1.8 2.5 6 2.5 9.9 0 4.3-.6 7-2 9zm-5-19c-2-.7-4.8 3.7-4.8 11 0 7.1 2.6 8 4.3 8.1 1.8.3 3.7-.4 4.5-3.8.5-2.1.7-3.8.5-6-.6-6.3-2.8-8.7-4.4-9.3zM169 15.8c0 6.9 0 10 .2 11.9.1 1.2-2.9 1.3-2.8 0l.1-2.4c0-1.1.2-3 .2-6.4 0-2-.2-2-.3-4l-6.2-5.4-.1 7.7c0 5.9.5 8.7.5 10.3 0 .6-.7 1-1.5 1s-1.4-.4-1.3-1c.1-1.9.2-4 .2-9.4l-.1-11c0-1 .1-1.7 1.3-1.7.7 0 1.4.2 1.9.9.7 1 1.3 1.6 2.1 2.4l3.3 2.8c.3-2.7-.1-4.3-.1-6 0-.5.6-.8 1.4-.8.8 0 1.4.3 1.4.8l-.2 10.3z"/></svg>