<svg version="1.1" id="Main_Title_B" xmlns="http://www.w3.org/2000/svg" x="0" y="0" viewBox="0 0 998.2 472.1" xml:space="preserve"><style>.Graphic_x0020_Style_x0020_10{fill:none;stroke:#fff;stroke-width:15;stroke-linecap:round;stroke-linejoin:round}</style><linearGradient id="SVGID_1_" gradientUnits="userSpaceOnUse" x1="320.3" y1="229.6" x2="320.3" y2="-3.9"><stop offset="0" stop-color="#02080f"/><stop offset=".1" stop-color="#0b2047"/><stop offset=".5" stop-color="#11316d"/><stop offset=".6" stop-color="#11306a"/><stop offset=".7" stop-color="#0f2c61"/><stop offset=".8" stop-color="#0d2552"/><stop offset=".8" stop-color="#0b2047"/><stop offset="1" stop-color="#02080f"/></linearGradient><path d="m26.1 22.9 34.3.7 20-.7c1.4 0 2.4.4 3.2 1.4.2 1.8 0 2.7-.7 2.7l-7.6.7c-1.6 1-2.8 2-3.5 3-.7 2 0 6.7 2 14.3C81.7 73.5 92 109.2 105 152.3h.7L150 29c1.8-3.8 3.5-5.6 5.1-5 1.4 0 3 2.3 5 7.1L208 151 240 38.4c.2-5.5-.1-8.3-1-8.3-1-1.1-2.5-2-4.5-2.5l-7-.2c-1.6-1-2.3-1.8-2-2.5.2-1.1 1.3-1.8 3.4-2l30.5.7 14.8-.8c1.4.5 2.4 1 2.8 1.7l-1 2.5-8.6 1c-2.6.7-4.7 2.5-6.4 5.2-1.9 2.2-6.6 15-14 38.4l-40.6 125.6c-1.4 2.6-2.4 4-3.1 4l-.4-.2c-1.8 0-3.1-.5-3.8-1.7l-9-21.1L148.2 74a2851.5 2851.5 0 0 1-42.8 113.6L99 200a5 5 0 0 1-2.5.9c-2 0-3.6-2-4.8-5.7L40 35.7c-2.2-4.2-4.2-6.5-5.8-7-5-1.3-8.3-1.8-9.7-1.3l-1.4-1v-1c0-1.5 1-2.3 3.1-2.5z" fill="url(#SVGID_1_)"/><linearGradient id="SVGID_2_" gradientUnits="userSpaceOnUse" x1="320.3" y1="229.6" x2="320.3" y2="-3.9"><stop offset="0" stop-color="#02080f"/><stop offset=".1" stop-color="#0b2047"/><stop offset=".5" stop-color="#11316d"/><stop offset=".6" stop-color="#11306a"/><stop offset=".7" stop-color="#0f2c61"/><stop offset=".8" stop-color="#0d2552"/><stop offset=".8" stop-color="#0b2047"/><stop offset="1" stop-color="#02080f"/></linearGradient><path d="m257.7 88.6 13.1.4h12.7l11.8-.4 1.8.6c0 1 0 1.6-.5 2-3.7 0-6.5.6-8.2 1.5-2 1-3 4.7-3 11.2v76.3c0 7 .7 11 2.2 12l1.7 1.4 11 1.2c.3.3.5.6.5 1l-.3 1-2.3.6-23.3-.4-17.8.2-1.1-.9v-1l.9-.7c3.5 0 5.8-.3 7-.8 1.8-.8 2.8-2.4 3-4.8 1-8.2 1.3-14 1-17.4l-.3-73.3c-.4-2.3-1.2-4-2.2-5.2l-1.9-1-6.9-.7c-.6-.4-1-.8-1-1.4l.2-.7 1.9-.7z" fill="url(#SVGID_2_)"/><linearGradient id="SVGID_3_" gradientUnits="userSpaceOnUse" x1="320.3" y1="229.6" x2="320.3" y2="-3.9"><stop offset="0" stop-color="#02080f"/><stop offset=".1" stop-color="#0b2047"/><stop offset=".5" stop-color="#11316d"/><stop offset=".6" stop-color="#11306a"/><stop offset=".7" stop-color="#0f2c61"/><stop offset=".8" stop-color="#0d2552"/><stop offset=".8" stop-color="#0b2047"/><stop offset="1" stop-color="#02080f"/></linearGradient><path d="M313 78.6c.3 1 3.8 1.4 10.7 1.4h66l7.9-1.2h1.3c.3 0 .4.3.4.6l-.4 20.1c-.3.8-.7 1.2-1.1 1.3l-1.3-.4-.4-.9-.5-4.5c-1-3.3-4.6-5.4-10.9-6.4a361 361 0 0 0-22.5-.6V163c0 7.4.4 13 1 16.8.7 2.1 1.6 3.5 2.9 4l3.2 1 6 .1c1.3 0 2 .3 2.3.8.2 1-.3 1.7-1.3 2l-23.4-.2c-9.4 0-15.1.2-17.3.4-1.4 0-2.3-.3-2.7-1-.2-.9 0-1.5.6-1.7 4.7 0 7.5-.6 8.4-1.8 1.8-1.2 2.7-6.7 2.7-16.4V88l-25 .6c-3.9.4-6.4 1.2-7.5 2.4l-2.6 3.6-1.3 4c-.6.5-1.2.7-1.6.7-.5 0-.8-.3-1-.8a35 35 0 0 1 1.3-11c1-5.6 1.9-8.7 2.4-9.3.2-.3.6-.4 1-.4a6 6 0 0 1 2.6.8z" fill="url(#SVGID_3_)"/><linearGradient id="SVGID_4_" gradientUnits="userSpaceOnUse" x1="320.3" y1="229.6" x2="320.3" y2="-3.9"><stop offset="0" stop-color="#02080f"/><stop offset=".1" stop-color="#0b2047"/><stop offset=".5" stop-color="#11316d"/><stop offset=".6" stop-color="#11306a"/><stop offset=".7" stop-color="#0f2c61"/><stop offset=".8" stop-color="#0d2552"/><stop offset=".8" stop-color="#0b2047"/><stop offset="1" stop-color="#02080f"/></linearGradient><path d="M451.8 93.6c7-.3 15.7.2 25.9 1.5a102 102 0 0 0 13.5 2.5l.9 1-.9 9.8-.2 13.8c0 1.7-.4 2.7-1.3 2.8l-1.4-.2-.6-2.3c-.3-9.2-5-15.6-14.2-19a50.8 50.8 0 0 0-25-2.6 30.1 30.1 0 0 0-21.9 11.8 51.3 51.3 0 0 0-9 32.4c0 6.2.8 12 2.5 17.4a46 46 0 0 0 7 14.2 42.6 42.6 0 0 0 29.9 17.7 51 51 0 0 0 15.7-.8c4.8-1 8.2-2.7 10.2-5l3.3-4c1.8-3.3 3-6.4 3.4-9.1.5-.6 1-.9 1.5-.9s.9.4 1.2 1.3c0 3.5-.9 9.5-2.5 18-.5 2.5-1.2 4-2 4.7-3.6 2.4-11 3.8-22.4 4.1h-3.7a83.6 83.6 0 0 1-27.3-4 53 53 0 0 1-27-20 52 52 0 0 1-9-28.5c-.2-9.4 1-17.6 4-24.6.8-2.7 2.6-6 5.2-9.7 9.8-13.9 24.6-21.3 44.2-22.3z" fill="url(#SVGID_4_)"/><linearGradient id="SVGID_5_" gradientUnits="userSpaceOnUse" x1="320.3" y1="229.6" x2="320.3" y2="-3.9"><stop offset="0" stop-color="#02080f"/><stop offset=".1" stop-color="#0b2047"/><stop offset=".5" stop-color="#11316d"/><stop offset=".6" stop-color="#11306a"/><stop offset=".7" stop-color="#0f2c61"/><stop offset=".8" stop-color="#0d2552"/><stop offset=".8" stop-color="#0b2047"/><stop offset="1" stop-color="#02080f"/></linearGradient><path d="M499.7 74.8a524.4 524.4 0 0 0 40 0c1.4.3 2 .6 2 1l-.3 1.4-.9.4c-4.5 0-7.4.7-8.7 2-.9 1-1.4 2.2-1.6 3.4-.7 4.1-.9 16.7-.5 37.6h54.6v-.4l.2-16.1c0-14-.4-21.3-1-22a6.1 6.1 0 0 0-3-3.4c-.3-.3-3.5-.7-9.7-1.3-.3-.2-.5-.6-.5-1.1v-.6c.4-.7 1-1 1.8-1 15.2.6 28.6.6 40.3 0l1.7 1c.1 1.1 0 1.7-.4 1.7-4 .1-6.8.6-8.5 1.5-2 1-3 4.8-3 11.2v74.7c0 4.1.3 8 1 11.6.8 2.2 1.8 3.5 3 4 3.3.5 6.7.9 10.5 1 .6.5 1 .9 1 1.3l-.1.5-1.1.8a1345.5 1345.5 0 0 0-42.9 0c-.7-.3-1.1-.6-1.3-1 0-1 .3-1.4.9-1.6 3.5 0 6-.3 7.6-1 2.3-1.1 3.4-5.9 3.5-14.3l.2-37-.7-.4-54.3.4v14.6c0 13.2.1 22.3.4 27.1l1 6.5a6 6 0 0 0 3.3 3.3l10 .8c.7.5 1 .9 1 1.3l-.1.5-1.3.8a1345.5 1345.5 0 0 0-42.8 0l-1.1-.8v-.6c0-.5 0-.9.4-1l6.9-.8c1.7-.3 2.9-2.1 3.6-5.7.6-6.7 1-11.6 1-14.8V87.6c0-4-.7-6.5-2.1-7.8-2.2-1.5-3.8-2.1-4.8-2l-6-.2c-1-.3-1.3-.8-1.2-1.5.6-1 1.3-1.5 2-1.3z" fill="url(#SVGID_5_)"/><g><linearGradient id="SVGID_6_" gradientUnits="userSpaceOnUse" x1="237.2" y1="411.5" x2="237.2" y2="190.8"><stop offset="0" stop-color="#02080f"/><stop offset=".1" stop-color="#0b2047"/><stop offset=".5" stop-color="#11316d"/><stop offset=".8" stop-color="#0b2047"/><stop offset="1" stop-color="#02080f"/></linearGradient><path d="M26 213.4a832.6 832.6 0 0 0 63.5 0c2.3.5 3.4 1 3.1 1.8l-.3 2-1.4.7c-7.2 0-11.8 1-13.8 3.3a10.5 10.5 0 0 0-2.6 5.3c-1.2 6.5-1.4 26.4-.7 59.7h86.5l.2-.7.1-25.6c0-22.2-.5-33.7-1.5-34.8a9.7 9.7 0 0 0-4.8-5.5c-.5-.4-5.6-1.1-15.4-2-.5-.4-.7-1-.7-1.8v-1c.5-1 1.4-1.4 2.8-1.4 24.1.9 45.4.9 63.9 0l2.7 1.4c.3 1.9 0 2.8-.7 2.8-6.2.2-10.7 1-13.4 2.4-3.2 1.6-4.8 7.6-4.8 17.8v118.4c0 6.6.6 12.8 1.8 18.5 1.1 3.5 2.7 5.5 4.8 6.2 5 1 10.5 1.5 16.5 1.7 1 .7 1.5 1.4 1.5 2 0 .4 0 .6-.2.8l-1.7 1.4a2053.7 2053.7 0 0 0-68 0c-1.1-.5-1.8-1-2-1.8 0-1.3.4-2.1 1.3-2.4 5.6 0 9.6-.5 12-1.7 3.7-1.7 5.5-9.2 5.6-22.6l.3-58.7-1-.7-86.2.7v23.2c0 21 .2 35.3.6 43l1.7 10.3a9.5 9.5 0 0 0 5.2 5.2l15.8 1.3c1 .7 1.6 1.4 1.6 2.1 0 .3 0 .5-.2.7l-2 1.4a2053.7 2053.7 0 0 0-68 0l-1.7-1.4v-1c0-.8.2-1.3.7-1.4l10.9-1.4c2.7-.3 4.6-3.3 5.7-9a270 270 0 0 0 1.5-23.5V233.6c0-6-1-10.2-3.3-12.3-3.4-2.2-6-3.3-7.6-3l-9.6-.4c-1.4-.4-2-1.2-1.7-2.4 1-1.6 2-2.3 3-2z" fill="url(#SVGID_6_)"/><linearGradient id="SVGID_7_" gradientUnits="userSpaceOnUse" x1="237.2" y1="411.5" x2="237.2" y2="190.8"><stop offset="0" stop-color="#02080f"/><stop offset=".1" stop-color="#0b2047"/><stop offset=".5" stop-color="#11316d"/><stop offset=".8" stop-color="#0b2047"/><stop offset="1" stop-color="#02080f"/></linearGradient><path d="m249.7 255.2 4.3-.1c7.3 0 13.7 1 19.4 3 19.2 6.6 29.3 20.6 30.4 41.8v3.6c0 15.3-4.8 28-14.6 37.8a47 47 0 0 1-16.9 11 55.9 55.9 0 0 1-20.5 3.5c-7 0-13.2-1-18.7-3.2-19-7.3-29.3-22-30.9-44.1l-.1-4.1a48.8 48.8 0 0 1 47.6-49.2zm-30.2 43.1c-.1 4 0 8.3.6 12.7.9 6.4 2.6 12.3 5.4 17.6 3.5 7 8 12.1 13.4 15.4 3.6 2.2 8.5 3.9 14.8 5 6 .4 10.9-.4 14.8-2.1 10.6-5 16.5-16 17.6-33l.2-6c0-13-3-23.7-8.9-31.9a35 35 0 0 0-24.7-14.5c-6.3-.3-11.3.5-15.1 2.3-11.3 5.3-17.3 16.8-18 34.5z" fill="url(#SVGID_7_)"/><linearGradient id="SVGID_8_" gradientUnits="userSpaceOnUse" x1="237.2" y1="411.5" x2="237.2" y2="190.8"><stop offset="0" stop-color="#02080f"/><stop offset=".1" stop-color="#0b2047"/><stop offset=".5" stop-color="#11316d"/><stop offset=".8" stop-color="#0b2047"/><stop offset="1" stop-color="#02080f"/></linearGradient><path d="M309.3 276.8a440.7 440.7 0 0 0 37.1 0l1.6.8c0 1 0 1.5-.4 1.5l-7 .7-2.5 1.1c-1.3 1.5-2 3-2 4.8l-.4 15.8V350c0 8.6.7 14 2.2 16 1.1 1.5 4.6 2.6 10.5 3.3 7.5.1 12.3 0 14.2-.4 2.7-.6 4.8-1.7 6.3-3.3 1.6-2.3 2.7-5.4 3.4-9.3l1.3-.6c.8.4 1.2.8 1 1.4a61.6 61.6 0 0 1-2.7 18.3c-.9 1.2-3.3 1.7-7.3 1.6l-32-.8-23 .2-1-.8v-1l.8-.6c4.4 0 7-.6 7.8-1.7 1.5-2.2 2.3-7.2 2.3-15v-69c0-3.5-.6-5.9-2-7-1.3-1.3-4.5-2-9.6-2.3-.2-.3-.3-.7-.3-1 0-.6.6-1 1.7-1.3z" fill="url(#SVGID_8_)"/><linearGradient id="SVGID_9_" gradientUnits="userSpaceOnUse" x1="237.2" y1="411.5" x2="237.2" y2="190.8"><stop offset="0" stop-color="#02080f"/><stop offset=".1" stop-color="#0b2047"/><stop offset=".5" stop-color="#11316d"/><stop offset=".8" stop-color="#0b2047"/><stop offset="1" stop-color="#02080f"/></linearGradient><path d="M354.2 256.6c8.6.5 15.8.6 21.5.4l9.9-.4 1 .4.1.4v1c-1.5.9-2.6 1.3-3 1.2-1.3.7-1.8 1.6-1.5 3 .5 1.7 1.5 4 3.2 7l19.8 35.6h.3l4.8-9.5 14.4-26.6 1.6-5.7c0-1.1 0-2-.4-2.6l-1.8-1.4c-2-.2-3-.6-3-1.4.2-.8.6-1.2 1.4-1.4 8.3.5 17.5.5 27.4 0 .8 0 1.3.3 1.6.8l-.4 1.3-.8.4h-.8c-1 0-2.4.3-4.3.9-1.7.8-3.1 1.6-4.3 2.6-3.2 2-11.4 14.7-24.5 38.3-2.8 4.9-4.4 8.3-5 10.2-.7 2.8-1.1 8.6-1.1 17.2 0 8.7.1 14.9.4 18.6a10 10 0 0 0 1.1 4.1c.7 1 1.6 1.7 2.8 2.2l9 .8c.5.4.8.8.8 1.2v.4l-1 .8a1209.5 1209.5 0 0 0-39.2 0l-1-.8v-.6c0-.4.1-.7.4-.8l6.3-.8c1-.3 1.7-.8 2.2-1.6 1.4-1 2-8.2 2-21.6v-10.6c-.4-3.2-.9-5.8-1.4-7.5-.8-2.2-2-4.8-3.8-7.9-11-19-18.6-31.5-22.7-37.3a26 26 0 0 0-5.7-5.7l-4.2-1.8-2.9-.2c-.5-.1-.8-.7-.8-1.6l1.6-1z" fill="url(#SVGID_9_)"/></g><g><linearGradient id="SVGID_10_" gradientUnits="userSpaceOnUse" x1="717.2" y1="435.5" x2="717.2" y2="204.5"><stop offset="0" stop-color="#02080f"/><stop offset=".3" stop-color="#0b2047"/><stop offset=".5" stop-color="#11316d"/><stop offset=".8" stop-color="#0b2047"/><stop offset="1" stop-color="#02080f"/></linearGradient><path d="m490.6 219.5 47.7 52.3 30.8 31.4 43 46.8h1L611 244c-.2-8.4-1.7-14-4.5-16.5l-4.8-2.4-13.2-1.1c-.5-.6-.7-1.2-.7-1.7 0-.6.2-1.2.7-1.8l2.8-.7 35.6.7 18.4-.7 2.7 1.4-.3 2.4-1.3.7c-6-.2-10.2.6-12.5 2.5l-2.8 3.4a52 52 0 0 0-2.1 15l-2.4 149.1c-.5 1.9-1 3-1.8 3.1-2.5.3-4.6-.5-6.5-2.4L588 365.4c-18-18-35.8-36.8-53.5-56.6l-38.1-42.2 2.4 103.1c.2 9 1.7 14.6 4.5 17l2.1 1.7 6.6 1.7c6.5-.2 9.8.3 10 1.4.1 1.3-.2 2.2-1.1 2.8-.9.5-2.2.8-4 .7l-31.9-.7-23.5.4c-1 0-1.6-.5-1.8-1.4-.3-1.4 0-2.2.7-2.5 1.4-.7 4.3-.9 8.6-.7l5.6-1.4c3.5-2 5.4-8.3 5.5-19l2.5-150.2h8z" fill="url(#SVGID_10_)"/><linearGradient id="SVGID_11_" gradientUnits="userSpaceOnUse" x1="717.2" y1="435.5" x2="717.2" y2="204.5"><stop offset="0" stop-color="#02080f"/><stop offset=".3" stop-color="#0b2047"/><stop offset=".5" stop-color="#11316d"/><stop offset=".8" stop-color="#0b2047"/><stop offset="1" stop-color="#02080f"/></linearGradient><path d="m641.8 267.4 12.2.4h11.7l10.9-.4 1.6.6c.1.9 0 1.5-.4 1.7-3.5.2-6 .6-7.6 1.4-1.8 1-2.8 4.4-2.8 10.4V352c0 6.4.7 10.1 2 11.1l1.6 1.2 10.2 1.2c.3.2.4.5.4.9 0 .2 0 .5-.2.9l-2.2.6-21.5-.4-16.4.2-1-.8v-1l.8-.6c3.2 0 5.4-.3 6.5-.8 1.6-.7 2.6-2.2 2.8-4.4.9-7.6 1.1-13 .8-16l-.2-67.8a10 10 0 0 0-2-4.8l-1.8-1-6.3-.6c-.6-.3-1-.7-1-1.3l.2-.6 1.7-.6z" fill="url(#SVGID_11_)"/><linearGradient id="SVGID_12_" gradientUnits="userSpaceOnUse" x1="717.2" y1="435.5" x2="717.2" y2="204.5"><stop offset="0" stop-color="#02080f"/><stop offset=".3" stop-color="#0b2047"/><stop offset=".5" stop-color="#11316d"/><stop offset=".8" stop-color="#0b2047"/><stop offset="1" stop-color="#02080f"/></linearGradient><path d="M730.9 277.6c8.2-.3 16.1.1 23.7 1.4a198 198 0 0 0 14.2 2c.7.2 1 .6 1.2 1.2-.8 6.4-1.1 14.1-1 23l-.4 1-.4.1H767l-.4-.3c-.6-5.4-2-9.3-4.2-11.5-3.2-3.3-6.9-5.7-11-7.3-3.2-1.1-6.7-2-10.7-2.7-4-.6-8-.7-12-.2-19 2.4-29 14.4-29.9 36v3.2c0 14 4 25.4 11.9 34.4a40.2 40.2 0 0 0 28.7 13.4c4.1.3 7.9 0 11.3-.7a5 5 0 0 0 3.9-3.7v-29.3c-.3-2-.6-3.4-1-4l-1.7-1.7c-.7-.7-3.7-1.2-9-1.6-.3-.3-.4-.6-.4-1 0-.2.1-.5.4-.9l1.5-.4a526.7 526.7 0 0 0 33.9 0c.9.2 1.5.6 2 1.2l-.5 1.1-5.3.8c-.9.1-1.9.8-2.9 2l-1 3-.2 33.3c0 1-.2 1.8-.7 2.3-6.6 4-15.7 6-27.2 6.3-19.1.5-34.1-3.8-45-12.8a44.4 44.4 0 0 1-16-37.2c0-13.7 4.2-25.2 12.7-34.7a50 50 0 0 1 36.8-15.7z" fill="url(#SVGID_12_)"/><linearGradient id="SVGID_13_" gradientUnits="userSpaceOnUse" x1="717.2" y1="435.5" x2="717.2" y2="204.5"><stop offset="0" stop-color="#02080f"/><stop offset=".3" stop-color="#0b2047"/><stop offset=".5" stop-color="#11316d"/><stop offset=".8" stop-color="#0b2047"/><stop offset="1" stop-color="#02080f"/></linearGradient><path d="M779 262a480.5 480.5 0 0 0 36.9 0c1.3.3 2 .6 1.8 1l-.2 1.2-.8.4c-4.2 0-6.9.7-8 2-.9.8-1.4 1.9-1.6 3a286 286 0 0 0-.4 34.8h50.4l.1-.4v-15c0-12.8-.2-19.6-.8-20.2a5.6 5.6 0 0 0-2.8-3.2c-.2-.2-3.2-.6-9-1.2-.2-.2-.4-.5-.4-1v-.6c.3-.5.9-.8 1.7-.8 14 .5 26.4.5 37.2 0l1.6.8c0 1.1 0 1.6-.4 1.6a20 20 0 0 0-7.9 1.4c-1.8 1-2.8 4.4-2.8 10.4v69c0 3.8.4 7.4 1 10.7.7 2 1.6 3.2 2.8 3.6 3 .5 6.2.9 9.7 1 .6.4.9.8.9 1.2l-.1.4-1 .8a1234 1234 0 0 0-39.6 0c-.7-.3-1.1-.6-1.2-1 0-.8.2-1.3.8-1.4 3.2 0 5.5-.3 7-1 2-1 3.2-5.3 3.2-13.2l.2-34.1-.6-.4-50.2.4v13.5c0 12.2.1 20.5.3 25l1 6a5.5 5.5 0 0 0 3 3l9.3.8c.6.4.9.8.9 1.2l-.1.4-1.2.8a1235 1235 0 0 0-39.5 0l-1-.8v-.6c0-.4 0-.7.4-.8l6.3-.8c1.6-.2 2.7-2 3.3-5.2.6-6.2 1-10.7 1-13.7v-67.2c0-3.6-.7-6-2-7.2-2-1.3-3.5-1.9-4.4-1.8l-5.6-.2c-.8-.2-1.1-.7-1-1.4.5-1 1.1-1.3 1.8-1.2z" fill="url(#SVGID_13_)"/><linearGradient id="SVGID_14_" gradientUnits="userSpaceOnUse" x1="717.2" y1="435.5" x2="717.2" y2="204.5"><stop offset="0" stop-color="#02080f"/><stop offset=".3" stop-color="#0b2047"/><stop offset=".5" stop-color="#11316d"/><stop offset=".8" stop-color="#0b2047"/><stop offset="1" stop-color="#02080f"/></linearGradient><path d="M895 274c.3 1 3.6 1.4 10 1.4h60.9l7.3-1.2h1.2c.3.1.4.3.4.6l-.4 18.6c-.3.7-.6 1-1 1.2l-1.2-.4-.4-.8-.4-4.1c-1-3-4.3-5-10-6-5.9-.4-12.8-.5-20.8-.5v69.4c0 6.7.3 11.9.9 15.4.5 2 1.4 3.2 2.6 3.8l3 .8 5.5.2c1.2 0 2 .3 2.2.7 0 1-.3 1.6-1.2 1.8l-21.7-.1c-8.7 0-14 0-16 .3-1.2 0-2-.3-2.5-1-.1-.7 0-1.3.6-1.5 4.4 0 7-.6 7.7-1.6 1.7-1.2 2.6-6.3 2.6-15.2v-73l-23.1.5c-3.6.4-6 1.1-7 2.2l-2.3 3.4-1.2 3.7a3 3 0 0 1-1.5.6c-.5 0-.8-.3-.9-.8-.4-.7 0-4 1.2-10 1-5.3 1.7-8.1 2.2-8.7.2-.3.5-.4 1-.4a6 6 0 0 1 2.3.7z" fill="url(#SVGID_14_)"/></g><g><linearGradient id="SVGID_15_" gradientUnits="userSpaceOnUse" x1="707.5" y1="208" x2="707.5" y2="99.6"><stop offset="0" stop-color="#02080f"/><stop offset=".2" stop-color="#0b2047"/><stop offset=".5" stop-color="#11346f"/><stop offset=".9" stop-color="#0b2047"/><stop offset="1" stop-color="#02080f"/></linearGradient><path d="M699 162.2a31.1 31.1 0 0 0 7.6-23.6c-.6-12.7-6.7-21-18.1-25.1a35.2 35.2 0 0 0-14.3-1.7c-7.5.4-13.7 2.7-18.5 7-3-2.4-6.2-4.7-9.5-7 2.2 3.4 4.6 6.5 7 9.6a29.1 29.1 0 0 0-7.4 22.3c1 13.3 7.2 22 18.6 26.5a30.8 30.8 0 0 0 13.2 1.8c3.5-.2 6.9-.8 10.2-2 3.3-1.4 6.2-3 8.7-5.3 3.1 2.5 6.4 5 9.7 7.2-2.2-3.4-4.7-6.6-7.2-9.7zm-32-45.3c2.3-1 5.3-1.5 9-1.3a21 21 0 0 1 14.9 8.7 32 32 0 0 1 5.3 19c0 1.2 0 2.4-.2 3.6-.2 3.7-.8 6.8-1.8 9.5l-1.1-1.3a303.9 303.9 0 0 0-30-30l-2.8-2.4c1.7-2.5 4-4.5 6.7-5.8zm18.5 49.8c-2.3 1-5.3 1.5-8.8 1.3a26 26 0 0 1-8.9-3c-3.2-2-6-5-8-9.2a32.1 32.1 0 0 1-3.3-10.6 44.6 44.6 0 0 1 1.5-18l1.4 1.5A308.1 308.1 0 0 0 692 161a15.4 15.4 0 0 1-6.5 5.7z" fill="url(#SVGID_15_)"/><linearGradient id="SVGID_16_" gradientUnits="userSpaceOnUse" x1="707.5" y1="208" x2="707.5" y2="99.6"><stop offset="0" stop-color="#02080f"/><stop offset=".2" stop-color="#0b2047"/><stop offset=".5" stop-color="#11346f"/><stop offset=".9" stop-color="#0b2047"/><stop offset="1" stop-color="#02080f"/></linearGradient><path d="m715.3 118.7 16.4 18 10.5 10.7 14.8 16h.3l-.7-36.3c0-3-.6-4.8-1.5-5.7l-1.7-.8-4.5-.4a1 1 0 0 1-.2-.6c0-.2 0-.4.2-.6l1-.2 12.2.2 6.3-.2.9.5-.1.8-.5.2c-2 0-3.5.2-4.3.9l-1 1.1c-.3 1.4-.6 3-.6 5.2l-.9 51.1c-.1.7-.3 1-.6 1.1-.8 0-1.6-.2-2.2-.8l-10.4-10.2a483 483 0 0 1-18.3-19.4l-13.1-14.5.8 35.4c0 3 .6 5 1.6 5.8l.7.6 2.3.6c2.2 0 3.3.1 3.4.5 0 .4-.1.7-.4 1l-1.4.2-11-.3-8 .2c-.3 0-.5-.2-.6-.5 0-.5 0-.8.2-.8.5-.3 1.5-.4 3-.3l2-.5c1.1-.7 1.8-2.8 1.8-6.5l.8-51.5h2.8z" fill="url(#SVGID_16_)"/></g><g><linearGradient id="SVGID_17_" gradientUnits="userSpaceOnUse" x1="863.1" y1="219.3" x2="863.1" y2="118"><stop offset="0" stop-color="#02080f"/><stop offset=".2" stop-color="#0b2047"/><stop offset=".5" stop-color="#11316d"/><stop offset=".8" stop-color="#0b2047"/><stop offset="1" stop-color="#02080f"/></linearGradient><path d="M786.2 142.7c.2.6 2.2.8 6 .8h36.2l4.4-.7h.7c.2.1.2.2.2.4l-.2 11c-.2.5-.4.7-.6.8l-.7-.3-.3-.4-.2-2.5c-.6-1.8-2.5-3-6-3.6-3.5-.2-7.6-.3-12.4-.3v41.3c0 4 .2 7.2.6 9.3.3 1.1.8 1.9 1.6 2.2l1.7.5h3.3c.7.1 1.2.3 1.3.5 0 .6-.2 1-.7 1.1a1153.4 1153.4 0 0 0-22.4.1c-.8 0-1.3-.2-1.5-.6-.1-.4 0-.7.3-.9 2.6 0 4.1-.3 4.6-1 1-.6 1.5-3.6 1.5-9v-43.5l-13.7.4c-2.2.2-3.5.6-4.2 1.3l-1.4 2-.7 2.2-.9.3c-.2 0-.4-.1-.5-.4-.2-.4 0-2.4.7-6 .6-3.1 1-4.8 1.3-5.2l.6-.2c.4 0 .8.1 1.4.4z" fill="url(#SVGID_17_)"/><linearGradient id="SVGID_18_" gradientUnits="userSpaceOnUse" x1="863.1" y1="219.3" x2="863.1" y2="118"><stop offset="0" stop-color="#02080f"/><stop offset=".2" stop-color="#0b2047"/><stop offset=".5" stop-color="#11316d"/><stop offset=".8" stop-color="#0b2047"/><stop offset="1" stop-color="#02080f"/></linearGradient><path d="M838.3 148.8a287.6 287.6 0 0 0 22 0c.8.2 1.1.4 1 .6v.8l-.5.2c-2.5 0-4.1.4-4.8 1.1-.5.6-.8 1.2-1 1.9-.3 2.3-.4 9.1-.2 20.7h30v-.3l.1-8.9c0-7.6-.1-11.6-.5-12-.4-1-1-1.6-1.7-1.9-.1-.2-1.9-.4-5.3-.7-.2-.1-.2-.4-.2-.7v-.3c.1-.3.5-.5 1-.5 8.3.3 15.7.3 22 0l1 .5c.1.7 0 1-.2 1a12 12 0 0 0-4.7.8c-1 .6-1.6 2.6-1.6 6.2v41c0 2.3.2 4.5.6 6.4.4 1.2 1 2 1.6 2.2 1.8.3 3.7.5 5.8.6.3.2.5.5.5.7v.3l-.7.4a710 710 0 0 0-23.5 0c-.4-.1-.7-.3-.8-.6 0-.4.2-.7.5-.8 2 0 3.3-.2 4.2-.6 1.2-.6 1.9-3.2 1.9-7.8l.1-20.4-.3-.2-30 .2v8c0 7.3.1 12.3.3 15l.6 3.5c.4 1 1 1.5 1.8 1.8l5.5.5c.3.2.5.5.5.7v.3l-.8.4a710 710 0 0 0-23.5 0l-.6-.4v-.4c0-.2 0-.4.2-.5l3.8-.4c1-.2 1.6-1.2 2-3.1.3-3.7.5-6.4.5-8.2v-40c0-2.2-.4-3.6-1.2-4.3-1.1-.8-2-1.2-2.6-1l-3.3-.2c-.5-.2-.7-.4-.6-.8.3-.6.7-.8 1.1-.8z" fill="url(#SVGID_18_)"/><linearGradient id="SVGID_19_" gradientUnits="userSpaceOnUse" x1="863.1" y1="219.3" x2="863.1" y2="118"><stop offset="0" stop-color="#02080f"/><stop offset=".2" stop-color="#0b2047"/><stop offset=".5" stop-color="#11316d"/><stop offset=".8" stop-color="#0b2047"/><stop offset="1" stop-color="#02080f"/></linearGradient><path d="M906.3 143.3c4 .2 10.8.3 20.4.3H937c2.2-.3 3.6-.6 4.3-1 .4 0 .6.1.7.4l-.7 6.3-.3 4.4c0 .5-.3.9-.7 1l-.8-.3c0-2.2-.3-3.7-.8-4.4a4.4 4.4 0 0 0-2-1.5c-1.5-.5-3.2-.7-5-.7l-8.9-.1-.2.2.2 21h13.2l2.3-.7 1.7-1.6c.5 0 .7.1.8.5-.5 3.3-.8 7.3-1 12 0 .5-.3.8-.5.8l-.9-.3c0-2.3-.3-3.7-.8-4.4-.9-1-1.6-1.6-2.2-1.7-1.2-.3-3.7-.4-7.6-.4h-5.2v20.4c.2 1.9.7 3.2 1.6 3.9.8.6 2.1 1 4 1.1l4 .2c3.1 0 5.5-.4 7-1l1.6-1.5 1-2.2.5-2.7c.2-.4.5-.6.8-.6l.5.1.3 1c-.1 2.3-.4 5-.9 8.3-.3 2-1.2 3-2.9 3H939l-19.4-.5H907l-.6-.4v-.3c0-.3 0-.5.2-.5l3.8-.5c1-.1 1.6-1.1 2-3 .4-3.7.6-6.4.6-8.2v-39.5c0-2.1-.4-3.5-1.2-4.2-1.2-.8-2.1-1.2-2.6-1l-3.4-.2c-.4-.2-.6-.4-.6-.8.3-.6.7-.8 1.1-.7z" fill="url(#SVGID_19_)"/></g><g><linearGradient id="SVGID_20_" gradientUnits="userSpaceOnUse" x1="-13.5" y1="428.4" x2="1074.7" y2="428.4"><stop offset="0" stop-color="#02080f"/><stop offset="0" stop-color="#030b16"/><stop offset=".1" stop-color="#071731"/><stop offset=".1" stop-color="#0a1e41"/><stop offset=".1" stop-color="#0b2047"/><stop offset=".5" stop-color="#11316d"/><stop offset=".8" stop-color="#0b2047"/><stop offset="1" stop-color="#02080f"/></linearGradient><path d="M965.5 428.4c0-9 3.8-16.8 9.3-20.4H23c5.4 3.6 9.2 11.4 9.2 20.4 0 9-3.8 16.7-9.2 20.3h951.8c-5.5-3.6-9.3-11.4-9.3-20.3z" fill="url(#SVGID_20_)"/><path id="Mahoutsukai_no_Yoru_15_" d="M133.3 428v8.6h-2.8v-16.8l7.2 8.5 7.3-8.5v16.8H142V428l-4.4 4.7-4.4-4.7zm47.5-8.1 7.5 16.7H185l-1.2-2.8h-6.2l-1.2 2.8h-3.2l7.5-16.8zm-2 11.5h4l-2-4.7-2 4.7zm47-1.5h-6.3v6.7h-2.9v-16.3h2.9v7.2h6.2v-7.2h3v16.3h-3V430zm39.5 6.9c-1.2 0-2.2-.2-3.2-.7-.9-.4-1.7-1-2.3-1.8a7.8 7.8 0 0 1-1.4-2.6 10.5 10.5 0 0 1 0-6.5 7 7 0 0 1 7-5.1c1.1 0 2.2.2 3.1.6 1 .5 1.7 1 2.4 1.8.6.8 1 1.7 1.4 2.7s.5 2 .5 3.2-.2 2.3-.5 3.3-.8 1.9-1.4 2.6a7 7 0 0 1-5.6 2.5zm0-2.4c.9 0 1.6-.2 2.2-.5.6-.3 1-.7 1.4-1.2s.7-1.2.8-1.9l.2-2.3c0-.8 0-1.6-.2-2.3-.1-.7-.4-1.3-.8-1.9-.3-.5-.8-1-1.4-1.2-.6-.3-1.3-.5-2.2-.5-.9 0-1.6.2-2.2.5-.5.3-1 .7-1.4 1.2-.3.6-.6 1.2-.7 1.9a11.3 11.3 0 0 0 0 4.6c.1.7.4 1.3.7 1.9.4.5.9 1 1.4 1.2.6.3 1.3.5 2.2.5zm43 2.4c-1.2 0-2.1-.2-3-.5a5 5 0 0 1-1.9-1.5c-.5-.6-.8-1.4-1-2.3l-.3-3v-9.2h2.8v9.1c0 .9 0 1.6.2 2.2 0 .6.2 1.1.5 1.6.3.4.6.7 1 .9s1 .3 1.8.3c.7 0 1.2-.1 1.7-.3s.8-.5 1-1c.3-.4.5-.9.5-1.5l.2-2.2v-9.1h2.8v9.1a13 13 0 0 1-.3 3c-.2 1-.5 1.8-1 2.4a5 5 0 0 1-2 1.5c-.8.3-1.8.5-3 .5zm35.2-16.5H354v2.5h-3.8v13.8h-3v-13.8h-3.8v-2.5zm47.4 2.9-1.4-.4-1.8-.2c-.6 0-1 0-1.3.3a2 2 0 0 0-1 1.4v.5c0 .6.2 1 .6 1.3.3.4.8.7 1.3.9l1.8.7a9 9 0 0 1 1.8 1c.6.3 1 .8 1.5 1.3.3.6.5 1.4.5 2.3a4 4 0 0 1-.4 1.9 5.2 5.2 0 0 1-4.5 2.6 22.8 22.8 0 0 1-2.9-.3 9.9 9.9 0 0 1-2.8-1l1-2 1.7.6c.7.2 1.6.3 2.7.3.8 0 1.4-.2 1.8-.7.3-.4.5-1 .5-1.6 0-.6-.2-1-.5-1.3l-1.4-.8-1.8-.7a8 8 0 0 1-1.8-.9c-.6-.3-1-.8-1.4-1.4-.4-.6-.6-1.4-.6-2.4 0-.6.1-1.2.3-1.7a3.7 3.7 0 0 1 2.4-2.5c.6-.2 1.4-.3 2.4-.3a9.5 9.5 0 0 1 4.3.9l-1 2.2zm37.4 13.6c-1.2 0-2.1-.2-3-.5a5 5 0 0 1-1.9-1.5c-.5-.6-.8-1.4-1-2.3l-.3-3v-9.2h2.8v9.1c0 .9 0 1.6.2 2.2 0 .6.2 1.1.5 1.6.3.4.6.7 1 .9s1 .3 1.8.3c.7 0 1.2-.1 1.7-.3s.8-.5 1-1c.3-.4.5-.9.5-1.5l.2-2.2v-9.1h2.8v9.1a13 13 0 0 1-.3 3c-.2 1-.5 1.8-1 2.4a5 5 0 0 1-2 1.5c-.8.3-1.8.5-3 .5zm49-16.5-5.5 6.8 6 9.5h-3.4l-4.5-7-2.4 2.8v4.2h-2.8v-16.3h2.8v7.5l6.3-7.5h3.6zm35.3-.4 7.5 16.7H517l-1.3-2.8h-6.2l-1.2 2.8H505l7.5-16.8zm-2 11.5h4l-2-4.7-2 4.7zm37.8-11.1h2.9v16.3h-2.9v-16.3zm74.4 7.3v-7.3h2.9v16.3h-2.9v-5.4l-6.8-5.1v10.5h-3v-16.8l9.8 7.8zm39.6 9.2c-1.2 0-2.3-.2-3.2-.7-1-.4-1.7-1-2.3-1.8a8.7 8.7 0 0 1-2-5.9c0-1.1.2-2.2.5-3.2s.8-2 1.5-2.7a7 7 0 0 1 5.5-2.4c1.2 0 2.3.2 3.2.6 1 .5 1.7 1 2.3 1.8.7.8 1.2 1.7 1.5 2.7s.5 2 .5 3.2-.2 2.3-.5 3.3-.8 1.9-1.4 2.6a7 7 0 0 1-5.6 2.5zm0-2.4c.9 0 1.6-.2 2.2-.5.6-.3 1-.7 1.4-1.2s.6-1.2.8-1.9a11.1 11.1 0 0 0 0-4.6c-.2-.7-.4-1.3-.8-1.9-.3-.5-.8-1-1.4-1.2-.6-.3-1.3-.5-2.2-.5-.9 0-1.6.2-2.2.5-.6.3-1 .7-1.4 1.2-.3.6-.6 1.2-.7 1.9a11.4 11.4 0 0 0 0 4.6c.1.7.4 1.3.7 1.9.4.5.9 1 1.4 1.2.6.3 1.3.5 2.2.5zm75.4 2.2h-3v-6l-5.5-10.3h3.3l3.7 7 3.8-7h3.3l-5.7 10.2v6.1zm39.7.2c-1.2 0-2.2-.2-3.2-.7-.9-.4-1.7-1-2.3-1.8a8.7 8.7 0 0 1-2-5.9c0-1.1.2-2.2.5-3.2s.9-2 1.5-2.7a7 7 0 0 1 5.5-2.4c1.2 0 2.3.2 3.2.6 1 .5 1.7 1 2.4 1.8.6.8 1 1.7 1.4 2.7s.5 2 .5 3.2-.2 2.3-.5 3.3-.8 1.9-1.4 2.6a7 7 0 0 1-5.6 2.5zm0-2.4c.9 0 1.6-.2 2.2-.5.6-.3 1-.7 1.4-1.2s.6-1.2.8-1.9a11.1 11.1 0 0 0 0-4.6c-.2-.7-.4-1.3-.8-1.9-.3-.5-.8-1-1.4-1.2-.6-.3-1.3-.5-2.2-.5-.9 0-1.6.2-2.2.5-.5.3-1 .7-1.4 1.2-.3.6-.6 1.2-.7 1.9a11.4 11.4 0 0 0 0 4.6c.1.7.4 1.3.7 1.9.4.5.9 1 1.4 1.2.6.3 1.3.5 2.2.5zm42.3-4h-2.7v6.2h-2.9v-16.3h6.4c.7 0 1.3.1 2 .4a4.8 4.8 0 0 1 2.6 2.6c.2.6.4 1.3.4 2 0 1.1-.3 2-.8 2.9-.5.8-1.1 1.4-1.9 2l2.7 6.4h-3.3l-2.5-6.2zm.5-2.5c.7 0 1.2-.2 1.7-.7s.6-1 .6-1.8-.2-1.4-.6-2c-.5-.4-1-.6-1.7-.6h-3.2v5.1h3.2zm40.6 8.9c-1.2 0-2.1-.2-3-.5-.7-.4-1.4-.9-1.9-1.5s-.8-1.4-1-2.3c-.2-1-.4-2-.4-3v-9.2h3v11.3a3 3 0 0 0 1.6 2.5c.5.2 1 .3 1.7.3s1.3-.1 1.7-.3c.5-.2.8-.5 1.1-1 .3-.4.4-.9.5-1.5l.2-2.2v-9.1h2.8v9.1c0 1.2 0 2.2-.3 3-.2 1-.6 1.8-1 2.4-.5.6-1.2 1.1-2 1.5s-1.8.5-3 .5z" fill="#fff"/></g></svg>